
<svg version="1.0" xmlns="http://www.w3.org/2000/svg"
 width="1280.000000pt" height="1280.000000pt" viewBox="0 0 1280.000000 1280.000000"
 preserveAspectRatio="xMidYMid meet">

<g transform="translate(0.000000,1280.000000) scale(0.100000,-0.100000)"
fill="#000000" stroke="none">
<path d="M8484 11518 c-905 -907 -1300 -1309 -1345 -1370 -170 -230 -274 -471
-316 -732 -20 -127 -13 -433 12 -546 60 -274 206 -559 381 -749 l67 -73 -481
-481 -482 -482 -2563 2563 -2563 2563 -265 -268 c-163 -165 -296 -308 -343
-372 -242 -321 -394 -669 -467 -1071 -30 -163 -38 -535 -15 -705 63 -452 235
-859 519 -1220 43 -55 748 -768 1826 -1848 l1756 -1757 -2103 -2103 -2102
-2102 382 -383 383 -382 2102 2102 2103 2103 513 -513 512 -512 675 675 675
675 2265 -2265 2265 -2265 383 382 382 383 -2777 2777 -2778 2778 482 482 481
481 73 -67 c194 -179 477 -322 761 -383 121 -26 477 -26 598 1 266 58 524 182
715 343 33 28 633 622 1333 1320 l1272 1269 -380 385 -380 384 -1277 -1276
-1278 -1277 -85 -41 c-193 -93 -373 -70 -553 72 l-39 30 1426 1426 c784 784
1426 1431 1426 1437 0 11 -746 754 -758 754 -4 0 -649 -642 -1433 -1426
l-1426 -1426 -30 39 c-90 114 -125 208 -125 333 0 100 24 182 78 269 24 37
456 477 1301 1322 l1266 1267 -384 381 c-211 209 -384 381 -384 381 0 0 -577
-577 -1281 -1282z m-4556 -3571 l2652 -2652 -293 -293 -292 -292 -2266 2267
c-2048 2050 -2272 2277 -2328 2362 -74 112 -119 198 -155 301 -89 246 -104
528 -41 774 27 107 54 186 64 186 3 0 1200 -1194 2659 -2653z"/>
</g>
</svg>
